<svg width="120" height="121" viewBox="0 0 120 121" fill="none"
    xmlns="http://www.w3.org/2000/svg">
    <defs>
        <clipPath id="clip0_23_29">
            <rect width="115" height="115" fill="white" transform="translate(0 6)"/>
        </clipPath>
        <clipPath id="clip1_23_29">
            <rect width="38" height="38" fill="white" transform="translate(82)"/>
        </clipPath>
    </defs>
    <g clip-path="url(#clip0_23_29)">
        <path d="M57.5 6C89.255 6 115 31.7451 115 63.5C115 95.255 89.2538 121 57.5 121C25.7462 121 0 95.2618 0 63.5C0 31.7381 25.7416 6 57.5 6Z" fill="#53AE94"/>
        <path d="M64.5967 55.8387V47.285H84.157V34.2521H30.8936V47.285H50.4563V55.8318C34.5575 56.5621 22.6033 59.7108 22.6033 63.4828C22.6033 67.2548 34.5633 70.4035 50.4563 71.1383V98.5371H64.6013V71.136C80.4713 70.4035 92.4014 67.2571 92.4014 63.4885C92.4014 59.72 80.4713 56.5736 64.6013 55.841M64.6013 68.8153V68.8084C64.2022 68.8337 62.1518 68.9568 57.5863 68.9568C53.9362 68.9568 51.3682 68.8533 50.4632 68.8061V68.8176C36.4171 68.1955 25.9325 65.7494 25.9325 62.8227C25.9325 59.8959 36.4182 57.4533 50.4632 56.83V66.3808C51.3832 66.444 54.0144 66.5993 57.6461 66.5993C62.008 66.5993 64.2011 66.4176 64.6036 66.3808V56.83C78.6221 57.4545 89.0825 59.9028 89.0825 62.8192C89.0825 65.7356 78.6175 68.1851 64.6036 68.8096" fill="white"/>
    </g>
    <g clip-path="url(#clip1_23_29)">
        <path fill-rule="evenodd" clip-rule="evenodd" d="M101 0C111.494 0 120 8.50585 120 19C120 29.4942 111.494 38 101 38C90.5058 38 82 29.4942 82 19C82 8.50585 90.5058 0 101 0Z" fill="#F0B90B"/>
        <path d="M92.4424 19L92.4561 24.024L96.725 26.536V29.4774L89.9578 25.5084V17.5308L92.4424 19ZM92.4424 13.976V16.9036L89.9563 15.4329V12.5053L92.4424 11.0346L94.9408 12.5053L92.4424 13.976ZM98.5078 12.5053L100.994 11.0346L103.492 12.5053L100.994 13.976L98.5078 12.5053Z" fill="white"/>
        <path d="M94.2389 22.9827V20.0413L96.725 21.512V24.4397L94.2389 22.9827ZM98.5078 27.5896L100.994 29.0602L103.492 27.5896V30.5172L100.994 31.9879L98.5078 30.5172V27.5896ZM107.058 12.5053L109.544 11.0346L112.042 12.5053V15.4329L109.544 16.9036V13.976L107.058 12.5053ZM109.544 24.024L109.558 19L112.044 17.5293V25.5069L105.277 29.4759V26.5345L109.544 24.024Z" fill="white"/>
        <path d="M107.761 22.9827L105.275 24.4396V21.512L107.761 20.0413V22.9827Z" fill="white"/>
        <path d="M107.761 15.0173L107.775 17.9586L103.494 20.4707V25.5069L101.008 26.9638L98.5215 25.5069V20.4707L94.2404 17.9586V15.0173L96.7372 13.5466L100.992 16.0708L105.274 13.5466L107.772 15.0173H107.761ZM94.2389 9.99478L100.994 6.01208L107.761 9.99478L105.275 11.4655L100.994 8.94125L96.725 11.4655L94.2389 9.99478Z" fill="white"/>
    </g>
</svg>
