<svg width="121" height="120" viewBox="0 0 121 120" fill="none"
    xmlns="http://www.w3.org/2000/svg">
    <defs>
        <clipPath id="clip0_23_27">
            <rect width="115" height="115" fill="white" transform="translate(0 5)"/>
        </clipPath>
        <clipPath id="clip1_23_27">
            <rect width="38" height="38" fill="white" transform="translate(83)"/>
        </clipPath>
    </defs>
    <g clip-path="url(#clip0_23_27)">
        <path d="M57.5 5C89.255 5 115 30.7451 115 62.5C115 94.255 89.2538 120 57.5 120C25.7462 120 0 94.2618 0 62.5C0 30.7381 25.7416 5 57.5 5Z" fill="#53AE94"/>
        <path d="M64.5967 54.8387V46.285H84.157V33.2521H30.8936V46.285H50.4563V54.8318C34.5575 55.5621 22.6033 58.7108 22.6033 62.4828C22.6033 66.2548 34.5633 69.4035 50.4563 70.1383V97.5371H64.6013V70.136C80.4713 69.4035 92.4014 66.2571 92.4014 62.4885C92.4014 58.72 80.4713 55.5736 64.6013 54.841M64.6013 67.8153V67.8084C64.2022 67.8337 62.1518 67.9568 57.5863 67.9568C53.9362 67.9568 51.3682 67.8533 50.4632 67.8061V67.8176C36.4171 67.1955 25.9325 64.7494 25.9325 61.8227C25.9325 58.8959 36.4182 56.4533 50.4632 55.83V65.3808C51.3832 65.444 54.0144 65.5993 57.6461 65.5993C62.008 65.5993 64.2011 65.4176 64.6036 65.3808V55.83C78.6221 56.4545 89.0825 58.9028 89.0825 61.8192C89.0825 64.7356 78.6175 67.1851 64.6036 67.8096" fill="white"/>
    </g>
    <g clip-path="url(#clip1_23_27)">
        <path d="M102 38C112.493 38 121 29.4934 121 19C121 8.50659 112.493 0 102 0C91.5066 0 83 8.50659 83 19C83 29.4934 91.5066 38 102 38Z" fill="#627EEA"/>
        <path d="M102.591 4.75V15.2831L111.494 19.2612L102.591 4.75Z" fill="white" fill-opacity="0.602"/>
        <path d="M102.591 4.75L93.6875 19.2612L102.591 15.2831V4.75Z" fill="white"/>
        <path d="M102.591 26.0869V33.244L111.5 20.9189L102.591 26.0869Z" fill="white" fill-opacity="0.602"/>
        <path d="M102.591 33.244V26.0858L93.6875 20.9189L102.591 33.244Z" fill="white"/>
        <path d="M102.591 24.4305L111.494 19.2613L102.591 15.2855V24.4305Z" fill="white" fill-opacity="0.2"/>
        <path d="M93.6875 19.2613L102.591 24.4305V15.2855L93.6875 19.2613Z" fill="white" fill-opacity="0.602"/>
    </g>
</svg>
