<svg width="130" height="124" viewBox="0 0 130 124" fill="none"
    xmlns="http://www.w3.org/2000/svg">
        <defs>
        <clipPath id="clip0_23_28">
            <rect width="115" height="115" fill="white" transform="translate(0 9)"/>
        </clipPath>
    </defs>
    <g clip-path="url(#clip0_23_28)">
        <path d="M57.5 9C89.255 9 115 34.7451 115 66.5C115 98.255 89.2538 124 57.5 124C25.7462 124 0 98.2618 0 66.5C0 34.7381 25.7416 9 57.5 9Z" fill="#53AE94"/>
        <path d="M64.5967 58.8387V50.285H84.157V37.2521H30.8936V50.285H50.4563V58.8318C34.5575 59.5621 22.6033 62.7108 22.6033 66.4828C22.6033 70.2548 34.5633 73.4035 50.4563 74.1383V101.537H64.6013V74.136C80.4713 73.4035 92.4014 70.2571 92.4014 66.4885C92.4014 62.72 80.4713 59.5736 64.6013 58.841M64.6013 71.8153V71.8084C64.2022 71.8337 62.1518 71.9568 57.5863 71.9568C53.9362 71.9568 51.3682 71.8533 50.4632 71.8061V71.8176C36.4171 71.1955 25.9325 68.7494 25.9325 65.8227C25.9325 62.8959 36.4182 60.4533 50.4632 59.83V69.3808C51.3832 69.444 54.0144 69.5993 57.6461 69.5993C62.008 69.5993 64.2011 69.4176 64.6036 69.3808V59.83C78.6221 60.4545 89.0825 62.9028 89.0825 65.8192C89.0825 68.7356 78.6175 71.1851 64.6036 71.8096" fill="white"/>
    </g>
    <path d="M100.985 41.2275C111.44 41.2275 119.908 32.8275 119.908 22.47C119.908 12.1125 111.44 3.71252 100.985 3.71252C90.531 3.71252 82.063 12.1125 82.063 22.47C82.063 32.8275 90.5382 41.2275 100.985 41.2275Z" fill="#FF060A"/>
    <path d="M111.628 19.1025C110.584 18.1425 109.134 16.68 107.96 15.645L107.887 15.6C107.771 15.51 107.641 15.435 107.503 15.3825C104.661 14.8575 91.4372 12.405 91.1835 12.435C91.111 12.4425 91.0385 12.4725 90.9805 12.51L90.9152 12.5625C90.8355 12.645 90.7702 12.7425 90.734 12.855L90.7195 12.9V13.1475V13.185C92.2057 17.295 98.0855 30.75 99.2455 33.915C99.318 34.1325 99.4485 34.5375 99.695 34.56H99.753C99.8835 34.56 100.449 33.8175 100.449 33.8175C100.449 33.8175 110.548 21.6825 111.57 20.3925C111.701 20.235 111.817 20.0625 111.918 19.8825C111.947 19.74 111.933 19.5975 111.882 19.4625C111.831 19.3275 111.737 19.2 111.628 19.1025ZM103.03 20.52L107.336 16.98L109.867 19.29L103.03 20.52ZM101.355 20.2875L93.9385 14.2575L105.944 16.455L101.355 20.2875ZM102.022 21.8625L109.613 20.6475L100.935 31.02L102.022 21.8625ZM92.9307 14.865L100.739 21.4275L99.608 31.0275L92.9307 14.865Z" fill="white"/>

</svg>
